<svg id="svg" version="1.1" xmlns="http://www.w3.org/2000/svg" xmlns:xlink="http://www.w3.org/1999/xlink" width="400" height="400" viewBox="0, 0, 400,400"><g id="svgg"><path id="path0" d="M186.518 30.608 C 183.727 33.693,172.093 58.303,160.665 85.296 C 141.400 130.805,139.290 134.384,131.663 134.495 C 87.048 135.146,26.331 143.721,21.167 150.099 C 9.384 164.650,12.820 169.841,62.448 212.455 C 95.909 241.187,102.844 248.579,101.570 254.157 C 100.719 257.886,95.096 281.820,89.074 307.342 C 70.228 387.215,77.338 391.626,152.620 346.769 L 200.000 318.537 247.380 346.769 C 301.311 378.904,321.875 381.968,321.875 357.871 C 321.875 353.833,302.149 266.211,298.235 252.864 C 297.251 249.507,309.877 236.603,337.492 212.745 C 387.193 169.804,390.604 164.635,378.833 150.099 C 373.673 143.725,313.003 135.152,268.413 134.495 C 260.878 134.384,258.684 130.632,239.275 84.649 C 213.893 24.516,202.548 12.895,186.518 30.608 " stroke="none" fill="#000000" fill-rule="evenodd"></path></g></svg>
